<!-- src/assets/icons.svg -->
<svg xmlns="http://www.w3.org/2000/svg" style="display: none;">
    <symbol id="icon-pay" viewBox="0 0 1024 1024">
        <path d="M810.667 683.733c0 53.608-43.458 97.067-97.067 97.067v0h-403.2c-53.608 0-97.067-43.458-97.067-97.067v0-343.467c0-53.608 43.458-97.067 97.067-97.067v0h403.2c53.608 0 97.067 43.458 97.067 97.067v0zM765.858 410.65h-153.6l0.009 145.526c0 15.395-11.648 28.070-26.612 29.692l-3.254 0.175c-7.121 0-14.007-2.545-19.418-7.174v0l-50.982-43.623-50.982 43.623c-11.697 10.009-28.901 9.399-39.862-0.916v0l-2.249-2.359c-4.63-5.41-7.174-12.297-7.174-19.418v0-145.526h-153.6v273.084c0 27.554 21.322 50.128 48.366 52.123l3.901 0.143h403.2c28.866 0 52.267-23.401 52.267-52.267v0l-0.009-273.084zM567.45 413.85h-110.925v109.875l36.057-30.828c10.318-8.829 25.153-9.508 36.167-2.038v0l2.669 2.038 36.032 30.828v-109.875zM713.6 288h-403.2c-28.866 0-52.267 23.401-52.267 52.267v0 25.583h507.725l0.009-25.583c0-27.554-21.322-50.128-48.366-52.123l-3.901-0.143z"/>
    </symbol>
    <symbol id="icon-receive" viewBox="0 0 1024 1024">
        <path d="M633.067 246.4c128.13 0 232 103.87 232 232 0 126.849-101.803 229.92-228.163 231.969l-3.837 0.031h-52.262l-116.933 116.938c-8.698 8.698-22.583 9.046-31.696 1.044l-1.114-1.044c-8.698-8.698-9.046-22.583-1.044-31.696l1.044-1.114 123.733-123.733c3.988-3.988 9.279-6.375 14.873-6.745l1.532-0.051h61.867c102.504 0 185.6-83.096 185.6-185.6 0-101.479-81.442-183.936-182.531-185.575l-3.069-0.025h-216.533c-102.504 0-185.6 83.096-185.6 185.6 0 101.479 81.442 183.936 182.531 185.575l3.069 0.025h23.2c12.813 0 23.2 10.387 23.2 23.2 0 12.355-9.658 22.455-21.837 23.161l-1.363 0.039h-23.2c-128.13 0-232-103.87-232-232 0-126.849 101.803-229.92 228.163-231.969l3.837-0.031h216.533zM370.133 439.733c21.355 0 38.667 17.312 38.667 38.667s-17.312 38.667-38.667 38.667c-21.355 0-38.667-17.312-38.667-38.667s17.312-38.667 38.667-38.667zM524.8 439.733c21.355 0 38.667 17.312 38.667 38.667s-17.312 38.667-38.667 38.667c-21.355 0-38.667-17.312-38.667-38.667s17.312-38.667 38.667-38.667zM679.467 439.733c21.355 0 38.667 17.312 38.667 38.667s-17.312 38.667-38.667 38.667c-21.355 0-38.667-17.312-38.667-38.667s17.312-38.667 38.667-38.667z"/>
    </symbol>
    <symbol id="icon-review" viewBox="0 0 1024 1024">
        <path d="M512 204.8c169.662 0 307.2 137.538 307.2 307.2 0 9.54-0.435 19.027-1.3 28.44-2.443 26.631-8.286 52.276-17.090 76.5v0l-0.783 1.698c-0.92 1.621-2.235 2.996-3.836 3.988-5.25 3.254-12.143 1.635-15.397-3.615v0l-53.107-85.692c-1.369-2.209-2.095-4.757-2.095-7.356 0-7.712 6.252-13.964 13.964-13.964v0h37.755c0-146.526-118.783-265.309-265.309-265.309-18.908 0-37.547 1.975-55.713 5.855-121.406 25.934-209.596 133.694-209.596 259.454 0 146.526 118.783 265.309 265.309 265.309 26.37 0 52.202-3.841 76.92-11.316 36.475-11.030 70.060-29.844 98.575-55.014 8.672-7.655 21.909-6.831 29.564 1.842s6.831 21.909-1.842 29.564c-33.006 29.134-71.902 50.924-114.171 63.706-28.64 8.661-58.556 13.109-89.045 13.109-169.662 0-307.2-137.538-307.2-307.2 0-145.623 102.099-270.379 242.736-300.421 21.038-4.494 42.61-6.779 64.464-6.779zM603.173 380.123c8.813 7.137 10.793 19.584 5.065 29.014l-1.754 2.491-51.481 63.547 34.098 0.025c10.45 0 19.074 8.545 20.339 19.59l0.16 2.81c0 11.42-7.82 20.843-17.927 22.225l-2.571 0.175-58.315-0.025v41.6l58.301 0.025c10.458 0 19.087 8.545 20.353 19.59l0.16 2.81c0 11.42-7.825 20.843-17.94 22.225l-2.573 0.175-58.301-0.025 0.014 33.114c0 10.252-8.545 18.713-19.59 19.954l-2.81 0.157c-11.42 0-20.843-7.672-22.225-17.588l-0.175-2.523-0.014-33.114-60.673 0.025c-10.458 0-19.087-8.545-20.353-19.59l-0.16-2.81c0-11.42 7.825-20.843 17.94-22.225l2.573-0.175 60.673-0.025v-41.6l-60.687 0.025c-10.45 0-19.074-8.545-20.339-19.59l-0.16-2.81c0-11.42 7.82-20.843 17.927-22.225l2.571-0.175 35.010-0.025-51.455-63.547c-7.785-9.614-6.303-23.719 3.311-31.505s23.719-6.303 31.505 3.311l63.974 79.043 64.025-79.043c7.785-9.614 21.891-11.097 31.505-3.311z"/>
    </symbol>
</svg>
